<svg xmlns="http://www.w3.org/2000/svg" width="116" height="56" viewBox="0 0 116 56">
  <defs>
    <style>
      .cls-1 {
        fill: #357cb0;
        stroke: #000;
        stroke-width: 1px;
        fill-rule: evenodd;
      }
    </style>
  </defs>
  <path id="Shape_346_2" data-name="Shape 346 2" class="cls-1" d="M220.8,52.891v2.837h-2.6V52.891h-8.079V52.175l5.166-12.729h2.669l-4.579,11.2H218.2V45.638h2.6v5.008H223v2.245h-2.2Zm-6.983-22.2a4,4,0,0,1-1.028,1.839,3.919,3.919,0,0,1-2.045.69c-20.3,2.565-40.547,5.665-60.827,8.391a2.283,2.283,0,0,1-1.521-.147,2.371,2.371,0,0,1-.758-2.02l-0.2-5.2q-0.09-2.359-.182-4.719a1.466,1.466,0,0,0-.2-0.839,1.317,1.317,0,0,0-1.079-.383c-1.215-.012-2.422.275-3.635,0.214a3.413,3.413,0,0,1-3.032-1.694,4.559,4.559,0,0,1-.2-2.269A133.814,133.814,0,0,1,141.43,8.386a2.387,2.387,0,0,1,.618-1.377,2.365,2.365,0,0,1,1.4-.417C164.654,4.929,185.619.3,206.883,0a2.542,2.542,0,0,1,1.8.44,2.66,2.66,0,0,1,.405,2.406q-0.694,4.382-1.39,8.765a1.8,1.8,0,0,0-.013.744c0.2,0.749,1.175.891,1.941,0.884l8.214-.069a1.557,1.557,0,0,1,1.438.512,1.587,1.587,0,0,1-.062,1.285Q216.515,22.828,213.814,30.688ZM161.056,12.405h-13.49v2.344H153V28.687H155.6V14.749h5.46V12.405Zm7.517,4.169a4.007,4.007,0,0,0-.98-0.123,4.257,4.257,0,0,0-3.5,1.7V16.575h-2.4V28.687h2.571V22.224a3.16,3.16,0,0,1,.979-2.467,3.64,3.64,0,0,1,2.546-.888h0.784V16.575Zm12.168,0H178.17V23.8a2.738,2.738,0,0,1-.747,2,2.539,2.539,0,0,1-1.9.765,2.641,2.641,0,0,1-1.959-.765,2.713,2.713,0,0,1-.759-2V16.575h-2.546v7.031a5.221,5.221,0,0,0,1.481,3.885,5.147,5.147,0,0,0,3.783,1.468,5.066,5.066,0,0,0,3.734-1.48,5.237,5.237,0,0,0,1.481-3.873V16.575Zm6.047,3.256a3.56,3.56,0,0,1,2.693-1.135,3.8,3.8,0,0,1,3.232,1.85l1.812-1.431a5.532,5.532,0,0,0-5.068-2.813,6.025,6.025,0,0,0-4.5,1.838,5.914,5.914,0,0,0-1.861,4.477,6.315,6.315,0,0,0,6.366,6.34,5.913,5.913,0,0,0,2.938-.74,5.744,5.744,0,0,0,2.13-2.072l-1.812-1.407a3.892,3.892,0,0,1-3.232,1.826,3.558,3.558,0,0,1-2.693-1.135A4.177,4.177,0,0,1,186.788,19.831Zm12.658-9.646h-2.571v18.5h2.571v-18.5ZM202.555,21.9l4.848-5.328H204.22l-4.7,5.3,5.215,6.809h3.085ZM143.026,39.965a5.615,5.615,0,0,1,2.142,2.121l-1.812,1.406a3.961,3.961,0,0,0-3.4-1.974,2.844,2.844,0,0,0-1.763.518,1.719,1.719,0,0,0-.685,1.456,3.173,3.173,0,0,0,.11.728,1.333,1.333,0,0,0,.453.592,3.429,3.429,0,0,0,.514.383q0.147,0.074.955,0.493a2.232,2.232,0,0,1,.22.123l1.812,0.839a8.707,8.707,0,0,1,2.95,2,3.891,3.891,0,0,1,.919,2.639,4.267,4.267,0,0,1-1.531,3.4A5.762,5.762,0,0,1,140.027,56a6.856,6.856,0,0,1-3.55-.937,7.018,7.018,0,0,1-2.547-2.59l1.837-1.406A5.074,5.074,0,0,0,140,53.656a3.134,3.134,0,0,0,2.02-.617,2.007,2.007,0,0,0,.771-1.653,1.719,1.719,0,0,0-.514-1.32,7.853,7.853,0,0,0-1.861-1.122l-1.787-.839a8.54,8.54,0,0,1-2.828-1.912,3.75,3.75,0,0,1-.942-2.6,3.963,3.963,0,0,1,1.469-3.182,5.443,5.443,0,0,1,3.623-1.233A6.088,6.088,0,0,1,143.026,39.965Zm-54.9,10.829,4.57-8.837L82.973,23.341a10.226,10.226,0,0,1,.686,3.885V38.668c0,1.326.187,3.395,0.187,3.395h-4.8s-0.129-1.67-.129-3.364c0,0-2.433,4.261-9.989,4.261-5.547,0-9.649-2.724-9.649-7.73a8.212,8.212,0,0,1,.044-0.837c-1.431,5.153-5.748,8.5-11.582,8.5-6.841,0-9.356-4.015-9.356-4.015,0,1.521-.182,3.184-0.182,3.184H33.115s0.115-2.318.115-3.968V31.9h-20.4c0,4.379,3.261,7.5,7.794,7.5,5.567,0,6.711-3.987,6.711-3.987h5.338s-0.707,7.4-11.724,7.4c-9.36,0-13.4-4.693-13.4-12.149,0-9.41,6.006-12.529,13.213-12.529,9.633,0,12.388,6.488,12.464,10.822V9.032h5.21v13.1s2.209-3.915,9.316-3.915c7.591,0,12.085,5.468,12.085,12.267a15.3,15.3,0,0,1-.2,2.44c1.213-3.539,5.465-5.287,12.476-5.287h6.328v-1.14c0-3.2-2.764-4.863-6.328-4.863-5.485,0-5.769,3.536-5.769,3.536h-5.4c0-.968.694-7.024,11.536-7.024,3.706,0,7.758.794,9.812,3.921l-1.552-2.971h6.072L95.537,36.9l8.692-17.807h5.5l-15.836,31.7H88.124ZM20.577,21.654c-3.789,0-7.629,2.448-7.629,6.74H27.834C27.834,24.351,24.892,21.654,20.577,21.654Zm25.863,0.153c-5.474,0-8,4.426-8,8.72,0,4.611,2.816,8.769,8.036,8.769,4.374,0,7.967-3.486,7.967-8.816C54.442,25.511,51.331,21.807,46.439,21.807Zm32.007,9.245c-8.191,0-13.769.025-13.769,4.175,0,2.282,1.655,4.247,5.519,4.247,7.052,0,8.25-4.925,8.25-6.906h0V31.053ZM-17.805,42.211a12.1,12.1,0,0,1-6.873,6.964,16.98,16.98,0,0,1-5.7,1.106c-2.505.112-3.3,0.139-9.681,0.139s-7.176-.027-9.681-0.139a17.03,17.03,0,0,1-5.7-1.106,11.555,11.555,0,0,1-4.157-2.743,11.754,11.754,0,0,1-2.716-4.221A17.6,17.6,0,0,1-63.4,36.436c-0.11-2.539-.138-3.348-0.138-9.81s0.028-7.271.147-9.819A17.64,17.64,0,0,1-62.3,11.033,11.728,11.728,0,0,1-59.595,6.82a11.441,11.441,0,0,1,4.166-2.752,16.967,16.967,0,0,1,5.7-1.107c2.505-.111,3.3-0.139,9.681-0.139s7.176,0.028,9.691.149a17,17,0,0,1,5.7,1.107A11.54,11.54,0,0,1-20.5,6.82a11.63,11.63,0,0,1,2.716,4.222A17.59,17.59,0,0,1-16.7,16.816c0.11,2.539.119,3.348,0.119,9.81s-0.028,7.271-.138,9.81A17.65,17.65,0,0,1-17.805,42.211Zm-3.12-25.18a13.255,13.255,0,0,0-.808-4.417A7.414,7.414,0,0,0-23.485,9.88a7.22,7.22,0,0,0-2.7-1.776,12.733,12.733,0,0,0-4.359-.818c-2.469-.112-3.212-0.139-9.489-0.139s-7.01.028-9.488,0.139a12.787,12.787,0,0,0-4.359.818,7.287,7.287,0,0,0-2.7,1.776,7.245,7.245,0,0,0-1.762,2.734,13.19,13.19,0,0,0-.807,4.417c-0.11,2.5-.138,3.264-0.138,9.614s0.027,7.1.138,9.615a13.248,13.248,0,0,0,.807,4.417,7.415,7.415,0,0,0,1.753,2.734,7.225,7.225,0,0,0,2.7,1.776A12.722,12.722,0,0,0-49.528,46c2.468,0.112,3.221.139,9.489,0.139s7.011-.028,9.488-0.139a12.771,12.771,0,0,0,4.359-.818,7.845,7.845,0,0,0,4.46-4.519,13.2,13.2,0,0,0,.808-4.417c0.11-2.51.138-3.254,0.138-9.605S-20.815,19.541-20.925,17.03Zm-6.58-.26a2.836,2.836,0,0,1-2.817-2.855A2.836,2.836,0,0,1-27.5,11.061a2.836,2.836,0,0,1,2.817,2.855A2.836,2.836,0,0,1-27.5,16.77ZM-40.049,38.853A12.151,12.151,0,0,1-52.116,26.626,12.151,12.151,0,0,1-40.049,14.4,12.151,12.151,0,0,1-27.982,26.626,12.151,12.151,0,0,1-40.049,38.853Zm0-20.159a7.882,7.882,0,0,0-7.828,7.932,7.881,7.881,0,0,0,7.828,7.931,7.881,7.881,0,0,0,7.827-7.931A7.881,7.881,0,0,0-40.049,18.695ZM-95.994,43.74H-104.3V30.51c0-3.152-.064-7.2-4.329-7.2-4.329,0-4.991,3.425-4.991,6.968V43.738h-8.317V16.565h7.987v3.706h0.117a8.723,8.723,0,0,1,7.876-4.387c8.424,0,9.975,5.625,9.975,12.927V43.738h-0.01v0Zm-35.327-30.88a4.9,4.9,0,0,1-4.822-4.933,4.857,4.857,0,0,1,4.822-4.887A4.859,4.859,0,0,1-126.5,7.927,4.9,4.9,0,0,1-131.321,12.86Zm-48.663.557v5.217h6.79l-0.93,7.573h-5.858V45.261h-7.486V26.206h-6.106V18.633h6.106V12.667c0-6.483,3.79-10.011,9.323-10.011a48.905,48.905,0,0,1,5.591.3V9.73h-3.838C-179.4,9.73-179.982,11.228-179.984,13.417Zm-47.362,25.2a7.169,7.169,0,0,1-5.007,5.077c-4.445,1.186-22.225,1.186-22.225,1.186s-17.734,0-22.226-1.233a7.172,7.172,0,0,1-5.007-5.078c-1.169-4.46-1.169-13.855-1.169-13.855s0-9.347,1.169-13.855A7.316,7.316,0,0,1-276.8,5.74c4.445-1.186,22.225-1.186,22.225-1.186s17.781,0,22.226,1.233a7.166,7.166,0,0,1,5.006,5.078c1.217,4.507,1.17,13.9,1.17,13.9S-226.177,34.114-227.346,38.622ZM-260.24,16.083V33.355l14.785-8.636ZM-127.154,43.74h-8.327V16.567h8.327V43.74Zm280.867-.4a5.533,5.533,0,0,1,5.068,2.812l-1.812,1.431a3.8,3.8,0,0,0-3.232-1.85,3.56,3.56,0,0,0-2.693,1.135,4.178,4.178,0,0,0,0,5.6,3.56,3.56,0,0,0,2.693,1.135,3.892,3.892,0,0,0,3.232-1.825l1.812,1.406a5.74,5.74,0,0,1-2.13,2.072,5.913,5.913,0,0,1-2.938.74,6.315,6.315,0,0,1-6.366-6.34,5.913,5.913,0,0,1,1.861-4.477A6.021,6.021,0,0,1,153.713,43.344Zm12.755,0a6.033,6.033,0,0,1,4.53,1.85,6.316,6.316,0,0,1,0,8.955,6.032,6.032,0,0,1-4.53,1.85,6.335,6.335,0,0,1-6.341-6.34A6.294,6.294,0,0,1,166.468,43.344Zm-2.656,9.139a3.705,3.705,0,0,0,5.325-.012,3.9,3.9,0,0,0,1.077-2.788,3.971,3.971,0,0,0-1.077-2.824,3.649,3.649,0,0,0-5.313,0,3.971,3.971,0,0,0-1.077,2.824A3.908,3.908,0,0,0,163.812,52.484Zm13.919-1.64a2.711,2.711,0,0,0,.759,2,2.635,2.635,0,0,0,1.958.765,2.539,2.539,0,0,0,1.9-.765,2.735,2.735,0,0,0,.747-2V43.616h2.57v7.031a5.237,5.237,0,0,1-1.481,3.873A5.066,5.066,0,0,1,180.448,56a5.144,5.144,0,0,1-3.782-1.468,5.223,5.223,0,0,1-1.482-3.885V43.616h2.547v7.228Zm11.629-10.41h2.595v3.182h3.575V45.86h-3.575v5.7a2,2,0,0,0,.576,1.616,2.775,2.775,0,0,0,1.8.481q0.417,0,1.592-.123v2.2a10.585,10.585,0,0,1-2.13.271,4.677,4.677,0,0,1-3.269-1.06,4.063,4.063,0,0,1-1.163-3.158V45.86H187.4V43.616h1.959V40.433Zm15.669,5.994a3.864,3.864,0,0,0,.588-2,2.934,2.934,0,0,0-.734-2.06,2.778,2.778,0,0,0-3.942.037,3.042,3.042,0,0,0-.759,2.121,9.017,9.017,0,0,0,.122,1.258h-2.62a5.272,5.272,0,0,1-.171-1.407,5.057,5.057,0,0,1,1.518-3.651,5.235,5.235,0,0,1,3.917-1.554,5.341,5.341,0,0,1,3.832,1.456,4.772,4.772,0,0,1,1.53,3.6,5.452,5.452,0,0,1-.881,3.034,22.522,22.522,0,0,1-2.546,3.158l-2.841,3.035h6.831v2.27h-11.58V55.136l5.753-6.241A15.269,15.269,0,0,0,205.029,46.428Z"/>
</svg>
