<svg xmlns="http://www.w3.org/2000/svg" width="90" height="44.375" viewBox="0 0 90 44.375">
  <defs>
    <style>
      .cls-1 {
        fill: #f7f8fa;
        fill-rule: evenodd;
      }
    </style>
  </defs>
  <path id="Scout24" class="cls-1" d="M73.651,40.247H69.073L72.7,33.239,64.985,18.477a8.1,8.1,0,0,1,.545,3.081v9.073c0,1.051.148,2.692,0.148,2.692H61.872s-0.1-1.325-.1-2.668c0,0-1.93,3.379-7.926,3.379-4.4,0-7.656-2.16-7.656-6.13a6.556,6.556,0,0,1,.035-0.664,9.078,9.078,0,0,1-9.19,6.741c-5.428,0-7.424-3.184-7.424-3.184,0,1.205-.145,2.525-0.145,2.525H25.424s0.092-1.838.092-3.146V25.265H9.329a5.85,5.85,0,0,0,6.185,5.95c4.417,0,5.325-3.161,5.325-3.161h4.236s-0.561,5.871-9.3,5.871C8.345,33.924,5.14,30.2,5.14,24.29c0-7.461,4.765-9.935,10.484-9.935,7.644,0,9.83,5.145,9.89,8.582V7.131h4.134V17.516s1.753-3.1,7.392-3.1c6.023,0,9.589,4.336,9.589,9.727a12.128,12.128,0,0,1-.155,1.935c0.962-2.806,4.336-4.193,9.9-4.193H61.4v-0.9c0-2.537-2.193-3.857-5.021-3.857-4.352,0-4.578,2.8-4.578,2.8H47.515c0-.767.55-5.57,9.154-5.57,2.94,0,6.156.63,7.786,3.109l-1.232-2.356h4.818l6.914,14.12,6.9-14.12h4.365ZM15.475,17.14c-3.006,0-6.053,1.941-6.053,5.344H21.234C21.234,19.279,18.9,17.14,15.475,17.14ZM36,17.261c-4.344,0-6.349,3.51-6.349,6.915,0,3.657,2.234,6.954,6.377,6.954,3.471,0,6.322-2.764,6.322-6.991C42.347,20.2,39.878,17.261,36,17.261Zm25.4,7.331c-6.5,0-10.926.02-10.926,3.311,0,1.81,1.313,3.368,4.379,3.368,5.6,0,6.546-3.906,6.546-5.476h0v-1.2ZM-14.98,33.441a9.6,9.6,0,0,1-5.454,5.523,13.475,13.475,0,0,1-4.521.877c-1.988.089-2.621,0.111-7.682,0.111s-5.694-.022-7.682-0.111a13.515,13.515,0,0,1-4.522-.877,9.16,9.16,0,0,1-3.3-2.175,9.318,9.318,0,0,1-2.155-3.347,13.946,13.946,0,0,1-.867-4.579c-0.087-2.013-.109-2.655-0.109-7.779s0.022-5.766.117-7.787a13.988,13.988,0,0,1,.866-4.579,9.308,9.308,0,0,1,2.148-3.34,9.087,9.087,0,0,1,3.306-2.183,13.463,13.463,0,0,1,4.521-.877c1.988-.089,2.621-0.111,7.682-0.111s5.694,0.022,7.689.118a13.5,13.5,0,0,1,4.522.877,9.167,9.167,0,0,1,3.3,2.175,9.222,9.222,0,0,1,2.155,3.347A13.942,13.942,0,0,1-14.1,13.3c0.087,2.013.095,2.655,0.095,7.779s-0.022,5.766-.109,7.779A13.994,13.994,0,0,1-14.98,33.441Zm-2.476-19.967a10.51,10.51,0,0,0-.641-3.5A5.873,5.873,0,0,0-19.487,7.8a5.727,5.727,0,0,0-2.141-1.408,10.107,10.107,0,0,0-3.458-.649c-1.959-.089-2.548-0.111-7.529-0.111s-5.563.022-7.529,0.111a10.151,10.151,0,0,0-3.459.649A5.78,5.78,0,0,0-45.743,7.8a5.74,5.74,0,0,0-1.4,2.168,10.46,10.46,0,0,0-.641,3.5c-0.088,1.983-.109,2.588-0.109,7.623s0.022,5.633.109,7.624a10.5,10.5,0,0,0,.641,3.5,5.879,5.879,0,0,0,1.391,2.168A5.732,5.732,0,0,0-43.61,35.8a10.109,10.109,0,0,0,3.459.649c1.959,0.089,2.556.11,7.529,0.11s5.563-.022,7.529-0.11a10.151,10.151,0,0,0,3.459-.649A6.222,6.222,0,0,0-18.1,32.216a10.46,10.46,0,0,0,.641-3.5c0.087-1.991.109-2.58,0.109-7.617S-17.368,15.464-17.456,13.473Zm-5.221-.207A2.25,2.25,0,0,1-24.912,11,2.25,2.25,0,0,1-22.677,8.74,2.25,2.25,0,0,1-20.441,11,2.25,2.25,0,0,1-22.677,13.267ZM-32.63,30.778a9.638,9.638,0,0,1-9.575-9.7,9.638,9.638,0,0,1,9.575-9.7,9.638,9.638,0,0,1,9.575,9.7A9.638,9.638,0,0,1-32.63,30.778Zm0-15.985a6.251,6.251,0,0,0-6.211,6.289,6.252,6.252,0,0,0,6.211,6.29,6.252,6.252,0,0,0,6.211-6.29A6.251,6.251,0,0,0-32.63,14.793Zm-44.391,19.86h-6.592V24.163c0-2.5-.05-5.706-3.435-5.706-3.435,0-3.961,2.716-3.961,5.525v10.67h-6.6V13.1h6.337v2.938h0.093a6.924,6.924,0,0,1,6.25-3.479c6.684,0,7.914,4.461,7.914,10.251V34.652h-0.008Zm-28.031-24.486a3.884,3.884,0,0,1-3.826-3.912,3.852,3.852,0,0,1,3.826-3.875,3.853,3.853,0,0,1,3.826,3.875A3.884,3.884,0,0,1-105.052,10.167Zm-38.613.442v4.137h5.388l-0.738,6.006h-4.649V35.86h-5.94V20.749h-4.844V14.744h4.844V10.013c0-5.141,3.008-7.938,7.4-7.938a38.818,38.818,0,0,1,4.436.238V7.684h-3.045C-143.2,7.684-143.664,8.872-143.665,10.608Zm-37.581,19.986a5.687,5.687,0,0,1-3.973,4.026c-3.527.941-17.635,0.941-17.635,0.941s-14.072,0-17.636-.978a5.685,5.685,0,0,1-3.972-4.027c-0.929-3.537-.929-10.987-0.929-10.987s0-7.412.929-10.986A5.8,5.8,0,0,1-220.49,4.52c3.527-.941,17.635-0.941,17.635-0.941s14.109,0,17.636.978a5.683,5.683,0,0,1,3.972,4.026c0.966,3.574.929,11.024,0.929,11.024S-180.318,27.02-181.246,30.594Zm-26.1-17.872v13.7l11.732-6.848Zm105.6,21.931h-6.607V13.106h6.607V34.653Zm217.88-7.532-0.144-3.741a1.164,1.164,0,0,0-.163-0.666,1.047,1.047,0,0,0-.856-0.3c-0.964-.009-1.922.218-2.884,0.17a2.708,2.708,0,0,1-2.406-1.343,3.617,3.617,0,0,1-.162-1.8,106.081,106.081,0,0,1,1.85-12.819,1.9,1.9,0,0,1,.491-1.092,1.877,1.877,0,0,1,1.114-.331C129.8,3.878,146.433.209,163.305-.031a2.018,2.018,0,0,1,1.428.349,2.1,2.1,0,0,1,.322,1.908q-0.552,3.476-1.1,6.951a1.415,1.415,0,0,0-.01.59,1.437,1.437,0,0,0,1.54.7L172,10.414a1.234,1.234,0,0,1,1.14.406,1.256,1.256,0,0,1-.049,1.019q-2.144,6.232-4.286,12.465a3.173,3.173,0,0,1-.816,1.459,3.115,3.115,0,0,1-1.623.547c-16.108,2.034-32.172,4.492-48.264,6.653a1.812,1.812,0,0,1-1.207-.117,1.881,1.881,0,0,1-.6-1.6Zm6.476-4.4V11.664h4.333V9.806h-10.7v1.858h4.313V22.716h2.059Zm9.52-9.7a3.378,3.378,0,0,0-2.778,1.35V13.112h-1.9v9.6h2.04V17.591a2.5,2.5,0,0,1,.777-1.956,2.891,2.891,0,0,1,2.02-.7h0.622V13.112a3.167,3.167,0,0,0-.777-0.1h0Zm3.293,8.754a4.085,4.085,0,0,0,3,1.164,4.022,4.022,0,0,0,2.963-1.174,4.153,4.153,0,0,0,1.175-3.071V13.112h-2.04v5.731a2.171,2.171,0,0,1-.592,1.585,2.017,2.017,0,0,1-1.506.606,2.094,2.094,0,0,1-1.554-.606,2.149,2.149,0,0,1-.6-1.585V13.112h-2.021v5.575A4.141,4.141,0,0,0,135.423,21.768Zm10.471-.3a4.873,4.873,0,0,0,3.584,1.467,4.69,4.69,0,0,0,2.331-.587A4.543,4.543,0,0,0,153.5,20.7l-1.437-1.115a3.09,3.09,0,0,1-2.565,1.448,2.826,2.826,0,0,1-2.137-.9,3.313,3.313,0,0,1,0-4.441,2.829,2.829,0,0,1,2.137-.9,3.018,3.018,0,0,1,2.565,1.467l1.437-1.135a4.389,4.389,0,0,0-4.021-2.23,4.783,4.783,0,0,0-3.575,1.457,4.688,4.688,0,0,0-1.476,3.55A4.848,4.848,0,0,0,145.894,21.465Zm11.51,1.252V8.045h-2.04V22.716h2.04Zm6.314-9.6h-2.526l-3.73,4.205,4.138,5.4h2.448l-4.177-5.379ZM107.439,43.631a5.448,5.448,0,0,0,2.817.743,4.571,4.571,0,0,0,3.079-1.037,3.379,3.379,0,0,0,1.215-2.7,3.082,3.082,0,0,0-.729-2.093,6.913,6.913,0,0,0-2.341-1.585l-1.438-.665a1.667,1.667,0,0,0-.174-0.1c-0.428-.221-0.68-0.352-0.758-0.391a2.67,2.67,0,0,1-.408-0.3,1.057,1.057,0,0,1-.359-0.47,2.482,2.482,0,0,1-.088-0.577A1.361,1.361,0,0,1,108.8,33.3a2.26,2.26,0,0,1,1.4-.411,3.143,3.143,0,0,1,2.7,1.565l1.438-1.115a4.458,4.458,0,0,0-1.7-1.683,4.838,4.838,0,0,0-2.438-.626,4.32,4.32,0,0,0-2.875.978,3.144,3.144,0,0,0-1.166,2.523,2.97,2.97,0,0,0,.748,2.064,6.782,6.782,0,0,0,2.244,1.516l1.418,0.665a6.263,6.263,0,0,1,1.477.89,1.367,1.367,0,0,1,.407,1.047,1.591,1.591,0,0,1-.612,1.31,2.487,2.487,0,0,1-1.6.489,4.026,4.026,0,0,1-3.361-2.054l-1.457,1.115A5.568,5.568,0,0,0,107.439,43.631Zm10.093-.724a4.873,4.873,0,0,0,3.584,1.467,4.691,4.691,0,0,0,2.331-.587,4.551,4.551,0,0,0,1.69-1.643L123.7,41.029a3.091,3.091,0,0,1-2.565,1.447,2.824,2.824,0,0,1-2.137-.9,3.31,3.31,0,0,1,0-4.441,2.826,2.826,0,0,1,2.137-.9A3.018,3.018,0,0,1,123.7,37.7l1.437-1.135a4.389,4.389,0,0,0-4.021-2.23,4.782,4.782,0,0,0-3.575,1.457,4.688,4.688,0,0,0-1.476,3.55A4.845,4.845,0,0,0,117.532,42.907Zm10.14-.01a4.724,4.724,0,0,0,3.565,1.477,4.791,4.791,0,0,0,3.594-1.467,5.006,5.006,0,0,0,0-7.1,5.112,5.112,0,0,0-7.159-.01A5.033,5.033,0,0,0,127.672,42.9Zm5.683-1.321a2.942,2.942,0,0,1-4.226.01,3.1,3.1,0,0,1-.845-2.22,3.148,3.148,0,0,1,.855-2.24,2.9,2.9,0,0,1,4.216,0,3.147,3.147,0,0,1,.854,2.24A3.086,3.086,0,0,1,133.355,41.577Zm5.973,1.634a4.087,4.087,0,0,0,3,1.164,4.022,4.022,0,0,0,2.963-1.174,4.152,4.152,0,0,0,1.175-3.071V34.554h-2.04v5.732a2.173,2.173,0,0,1-.592,1.584,2.017,2.017,0,0,1-1.506.607,2.092,2.092,0,0,1-1.554-.607,2.148,2.148,0,0,1-.6-1.584V34.554h-2.021v5.575A4.145,4.145,0,0,0,139.328,43.211Zm14.017-.694a2.2,2.2,0,0,1-1.428-.382,1.587,1.587,0,0,1-.456-1.282V36.335H154.3v-1.78h-2.836V32.031H149.4v2.523h-1.554v1.78H149.4v4.695a3.22,3.22,0,0,0,.923,2.5,3.71,3.71,0,0,0,2.593.841,8.373,8.373,0,0,0,1.691-.215V42.418q-0.933.1-1.263,0.1h0Zm8.373-2.563a17.751,17.751,0,0,0,2.02-2.5,4.315,4.315,0,0,0,.7-2.406,3.784,3.784,0,0,0-1.214-2.856,4.243,4.243,0,0,0-3.041-1.154,4.155,4.155,0,0,0-3.108,1.233,4.008,4.008,0,0,0-1.2,2.9,4.2,4.2,0,0,0,.136,1.115h2.079a7.161,7.161,0,0,1-.1-1,2.414,2.414,0,0,1,.6-1.682,2.206,2.206,0,0,1,3.128-.029A2.321,2.321,0,0,1,162.3,35.2a3.063,3.063,0,0,1-.467,1.584,12.131,12.131,0,0,1-1.573,1.956L155.7,43.689v0.47h9.19v-1.8h-5.421Zm12.627,0.176V36.158h-2.059v3.971h-3.827l3.633-8.881h-2.118l-4.1,10.094v0.567h6.411v2.25h2.059v-2.25h1.749v-1.78h-1.749Z"/>
</svg>
