<svg xmlns="http://www.w3.org/2000/svg" width="57" height="56" viewBox="0 0 57 56">
  <defs>
    <style>
      .cls-1 {
        fill: #357cb0;
        stroke: #000;
        stroke-width: 1px;
        fill-rule: evenodd;
      }
    </style>
  </defs>
  <path id="Shape_346_2" data-name="Shape 346 2" class="cls-1" d="M429.8,52.891v2.837h-2.6V52.891h-8.079V52.175l5.166-12.729h2.669l-4.579,11.2H427.2V45.638h2.6v5.008H432v2.245h-2.2Zm-6.983-22.2a4,4,0,0,1-1.028,1.839,3.919,3.919,0,0,1-2.045.69c-20.3,2.565-40.547,5.665-60.827,8.391a2.283,2.283,0,0,1-1.521-.147,2.371,2.371,0,0,1-.758-2.02l-0.2-5.2q-0.09-2.359-.182-4.719a1.466,1.466,0,0,0-.2-0.839,1.317,1.317,0,0,0-1.079-.383c-1.215-.012-2.422.275-3.635,0.214a3.413,3.413,0,0,1-3.032-1.694,4.559,4.559,0,0,1-.205-2.269A133.814,133.814,0,0,1,350.43,8.386a2.387,2.387,0,0,1,.618-1.377,2.365,2.365,0,0,1,1.4-.417C373.654,4.929,394.619.3,415.883,0a2.542,2.542,0,0,1,1.8.44,2.66,2.66,0,0,1,.405,2.406q-0.695,4.382-1.39,8.765a1.8,1.8,0,0,0-.013.744c0.2,0.749,1.175.891,1.941,0.884l8.214-.069a1.557,1.557,0,0,1,1.438.512,1.587,1.587,0,0,1-.062,1.285Q425.515,22.828,422.814,30.688ZM370.056,12.405h-13.49v2.344H362V28.687h2.6V14.749h5.46V12.405Zm7.517,4.169a4.007,4.007,0,0,0-.98-0.123,4.257,4.257,0,0,0-3.5,1.7V16.575h-2.4V28.687h2.571V22.224a3.16,3.16,0,0,1,.979-2.467,3.64,3.64,0,0,1,2.546-.888h0.784V16.575Zm12.168,0H387.17V23.8a2.738,2.738,0,0,1-.747,2,2.539,2.539,0,0,1-1.9.765,2.641,2.641,0,0,1-1.959-.765,2.713,2.713,0,0,1-.759-2V16.575h-2.546v7.031a5.221,5.221,0,0,0,1.481,3.885,5.147,5.147,0,0,0,3.783,1.468,5.066,5.066,0,0,0,3.734-1.48,5.237,5.237,0,0,0,1.481-3.873V16.575Zm6.047,3.256a3.56,3.56,0,0,1,2.693-1.135,3.8,3.8,0,0,1,3.232,1.85l1.812-1.431a5.532,5.532,0,0,0-5.068-2.813,6.025,6.025,0,0,0-4.5,1.838,5.914,5.914,0,0,0-1.861,4.477,6.315,6.315,0,0,0,6.366,6.34,5.913,5.913,0,0,0,2.938-.74,5.744,5.744,0,0,0,2.13-2.072l-1.812-1.407a3.892,3.892,0,0,1-3.232,1.826,3.558,3.558,0,0,1-2.693-1.135A4.177,4.177,0,0,1,395.788,19.831Zm12.658-9.646h-2.571v18.5h2.571v-18.5ZM411.555,21.9l4.848-5.328H413.22l-4.7,5.3,5.215,6.809h3.085ZM352.026,39.965a5.615,5.615,0,0,1,2.142,2.121l-1.812,1.406a3.961,3.961,0,0,0-3.4-1.974,2.844,2.844,0,0,0-1.763.518,1.719,1.719,0,0,0-.685,1.456,3.173,3.173,0,0,0,.11.728,1.333,1.333,0,0,0,.453.592,3.429,3.429,0,0,0,.514.383q0.147,0.074.955,0.493a2.232,2.232,0,0,1,.22.123l1.812,0.839a8.707,8.707,0,0,1,2.95,2,3.891,3.891,0,0,1,.919,2.639,4.267,4.267,0,0,1-1.531,3.4A5.762,5.762,0,0,1,349.027,56a6.856,6.856,0,0,1-3.55-.937,7.018,7.018,0,0,1-2.547-2.59l1.837-1.406A5.074,5.074,0,0,0,349,53.656a3.134,3.134,0,0,0,2.02-.617,2.007,2.007,0,0,0,.771-1.653,1.719,1.719,0,0,0-.514-1.32,7.853,7.853,0,0,0-1.861-1.122l-1.787-.839a8.54,8.54,0,0,1-2.828-1.912,3.75,3.75,0,0,1-.942-2.6,3.963,3.963,0,0,1,1.469-3.182,5.443,5.443,0,0,1,3.623-1.233A6.088,6.088,0,0,1,352.026,39.965Zm-54.9,10.829,4.571-8.837-9.722-18.616a10.227,10.227,0,0,1,.686,3.885V38.668c0,1.326.187,3.395,0.187,3.395h-4.8s-0.128-1.67-.128-3.364c0,0-2.433,4.261-9.989,4.261-5.547,0-9.649-2.724-9.649-7.73,0-.287.017-0.566,0.044-0.837-1.431,5.153-5.748,8.5-11.582,8.5-6.84,0-9.356-4.015-9.356-4.015,0,1.521-.182,3.184-0.182,3.184h-5.093s0.116-2.318.116-3.968V31.9h-20.4c0,4.379,3.261,7.5,7.794,7.5,5.567,0,6.712-3.987,6.712-3.987h5.338s-0.706,7.4-11.724,7.4c-9.36,0-13.4-4.693-13.4-12.149,0-9.41,6.006-12.529,13.212-12.529,9.633,0,12.389,6.488,12.465,10.822V9.032h5.21v13.1s2.209-3.915,9.316-3.915c7.591,0,12.085,5.468,12.085,12.267a15.208,15.208,0,0,1-.2,2.44c1.213-3.539,5.465-5.287,12.477-5.287h6.328v-1.14c0-3.2-2.764-4.863-6.328-4.863-5.485,0-5.77,3.536-5.77,3.536h-5.395c0-.968.694-7.024,11.536-7.024,3.706,0,7.758.794,9.812,3.921l-1.552-2.971h6.072L304.537,36.9l8.692-17.807h5.5l-15.836,31.7h-5.77Zm-67.547-29.14c-3.789,0-7.629,2.448-7.629,6.74h14.886C236.834,24.351,233.892,21.654,229.577,21.654Zm25.862,0.153c-5.474,0-8,4.426-8,8.72,0,4.611,2.816,8.769,8.036,8.769,4.374,0,7.968-3.486,7.968-8.816C263.442,25.511,260.331,21.807,255.439,21.807Zm32.008,9.245c-8.192,0-13.77.025-13.77,4.175,0,2.282,1.655,4.247,5.519,4.247,7.052,0,8.25-4.925,8.25-6.906h0V31.053ZM191.2,42.211a12.1,12.1,0,0,1-6.874,6.964,16.975,16.975,0,0,1-5.7,1.106c-2.5.112-3.3,0.139-9.681,0.139s-7.176-.027-9.681-0.139a17.035,17.035,0,0,1-5.7-1.106,11.558,11.558,0,0,1-4.157-2.743,11.763,11.763,0,0,1-2.716-4.221,17.6,17.6,0,0,1-1.092-5.774c-0.11-2.539-.137-3.348-0.137-9.81s0.027-7.271.146-9.819a17.643,17.643,0,0,1,1.092-5.774,11.739,11.739,0,0,1,2.707-4.213,11.445,11.445,0,0,1,4.167-2.752,16.96,16.96,0,0,1,5.7-1.107c2.5-.111,3.3-0.139,9.681-0.139s7.176,0.028,9.69.149a17.008,17.008,0,0,1,5.7,1.107A11.544,11.544,0,0,1,188.5,6.82a11.626,11.626,0,0,1,2.716,4.222,17.592,17.592,0,0,1,1.092,5.774c0.11,2.539.119,3.348,0.119,9.81s-0.027,7.271-.137,9.81A17.649,17.649,0,0,1,191.2,42.211Zm-3.12-25.18a13.256,13.256,0,0,0-.808-4.417,7.409,7.409,0,0,0-1.753-2.734,7.216,7.216,0,0,0-2.7-1.776,12.736,12.736,0,0,0-4.359-.818c-2.469-.112-3.212-0.139-9.489-0.139s-7.01.028-9.488,0.139a12.788,12.788,0,0,0-4.359.818,7.853,7.853,0,0,0-4.46,4.51,13.205,13.205,0,0,0-.807,4.417c-0.11,2.5-.137,3.264-0.137,9.614s0.027,7.1.137,9.615a13.263,13.263,0,0,0,.807,4.417,7.422,7.422,0,0,0,1.753,2.734,7.234,7.234,0,0,0,2.7,1.776,12.724,12.724,0,0,0,4.359.818c2.468,0.112,3.221.139,9.488,0.139s7.011-.028,9.489-0.139a12.763,12.763,0,0,0,4.358-.818,7.843,7.843,0,0,0,4.46-4.519,13.2,13.2,0,0,0,.808-4.417c0.11-2.51.137-3.254,0.137-9.605S188.185,19.541,188.075,17.03Zm-6.58-.26a2.855,2.855,0,1,1,2.817-2.855A2.836,2.836,0,0,1,181.5,16.77ZM168.951,38.853a12.228,12.228,0,1,1,12.067-12.227A12.151,12.151,0,0,1,168.951,38.853Zm0-20.159a7.932,7.932,0,1,0,7.827,7.932A7.882,7.882,0,0,0,168.951,18.695ZM113.006,43.74H104.7V30.51c0-3.152-.064-7.2-4.329-7.2-4.329,0-4.991,3.425-4.991,6.968V43.738H87.061V16.565h7.987v3.706h0.117a8.723,8.723,0,0,1,7.876-4.387c8.424,0,9.975,5.625,9.975,12.927V43.738h-0.01v0ZM77.679,12.86A4.911,4.911,0,1,1,82.5,7.927,4.9,4.9,0,0,1,77.679,12.86Zm-48.663.557v5.217h6.79l-0.93,7.573H29.018V45.261H21.532V26.206H15.426V18.633h6.106V12.667c0-6.483,3.79-10.011,9.323-10.011a48.905,48.905,0,0,1,5.591.3V9.73H32.608C29.6,9.73,29.018,11.228,29.016,13.417Zm-47.362,25.2A7.169,7.169,0,0,1-23.353,43.7c-4.445,1.186-22.225,1.186-22.225,1.186s-17.734,0-22.225-1.233a7.169,7.169,0,0,1-5.007-5.078c-1.17-4.46-1.17-13.855-1.17-13.855s0-9.347,1.17-13.855A7.314,7.314,0,0,1-67.8,5.74c4.445-1.186,22.225-1.186,22.225-1.186s17.781,0,22.226,1.233a7.168,7.168,0,0,1,5.007,5.078c1.217,4.507,1.17,13.9,1.17,13.9S-17.177,34.114-18.346,38.622ZM-51.24,16.083V33.355l14.785-8.636ZM81.846,43.74H73.52V16.567h8.326V43.74Zm280.867-.4a5.533,5.533,0,0,1,5.068,2.812l-1.812,1.431a3.8,3.8,0,0,0-3.232-1.85,3.56,3.56,0,0,0-2.693,1.135,4.178,4.178,0,0,0,0,5.6,3.56,3.56,0,0,0,2.693,1.135,3.892,3.892,0,0,0,3.232-1.825l1.812,1.406a5.74,5.74,0,0,1-2.13,2.072,5.913,5.913,0,0,1-2.938.74,6.315,6.315,0,0,1-6.366-6.34,5.913,5.913,0,0,1,1.861-4.477A6.021,6.021,0,0,1,362.713,43.344Zm12.755,0a6.033,6.033,0,0,1,4.53,1.85,6.316,6.316,0,0,1,0,8.955,6.032,6.032,0,0,1-4.53,1.85,6.335,6.335,0,0,1-6.341-6.34A6.294,6.294,0,0,1,375.468,43.344Zm-2.656,9.139a3.705,3.705,0,0,0,5.325-.012,3.9,3.9,0,0,0,1.077-2.788,3.971,3.971,0,0,0-1.077-2.824,3.649,3.649,0,0,0-5.313,0,3.971,3.971,0,0,0-1.077,2.824A3.908,3.908,0,0,0,372.812,52.484Zm13.919-1.64a2.711,2.711,0,0,0,.759,2,2.635,2.635,0,0,0,1.958.765,2.539,2.539,0,0,0,1.9-.765,2.735,2.735,0,0,0,.747-2V43.616h2.57v7.031a5.237,5.237,0,0,1-1.481,3.873A5.066,5.066,0,0,1,389.448,56a5.144,5.144,0,0,1-3.782-1.468,5.223,5.223,0,0,1-1.482-3.885V43.616h2.547v7.228Zm11.629-10.41h2.595v3.182h3.575V45.86h-3.575v5.7a2,2,0,0,0,.576,1.616,2.775,2.775,0,0,0,1.8.481q0.417,0,1.592-.123v2.2a10.585,10.585,0,0,1-2.13.271,4.677,4.677,0,0,1-3.269-1.06,4.063,4.063,0,0,1-1.163-3.158V45.86H396.4V43.616h1.959V40.433Zm15.669,5.994a3.864,3.864,0,0,0,.588-2,2.934,2.934,0,0,0-.734-2.06,2.778,2.778,0,0,0-3.942.037,3.042,3.042,0,0,0-.759,2.121,9.017,9.017,0,0,0,.122,1.258h-2.62a5.272,5.272,0,0,1-.171-1.407,5.057,5.057,0,0,1,1.518-3.651,5.235,5.235,0,0,1,3.917-1.554,5.341,5.341,0,0,1,3.832,1.456,4.772,4.772,0,0,1,1.53,3.6,5.452,5.452,0,0,1-.881,3.034,22.522,22.522,0,0,1-2.546,3.158l-2.841,3.035h6.831v2.27h-11.58V55.136l5.753-6.241A15.269,15.269,0,0,0,414.029,46.428Z"/>
</svg>
