<svg xmlns="http://www.w3.org/2000/svg" width="38" height="44.375" viewBox="0 0 38 44.375">
  <defs>
    <style>
      .cls-1 {
        fill: #f7f8fa;
        fill-rule: evenodd;
      }
    </style>
  </defs>
  <path id="Scout24" class="cls-1" d="M237.651,40.247h-4.578l3.626-7.008-7.714-14.762a8.1,8.1,0,0,1,.545,3.081v9.073c0,1.051.148,2.692,0.148,2.692h-3.806s-0.1-1.325-.1-2.668c0,0-1.93,3.379-7.926,3.379-4.4,0-7.656-2.16-7.656-6.13a6.5,6.5,0,0,1,.035-0.664,9.078,9.078,0,0,1-9.19,6.741c-5.428,0-7.424-3.184-7.424-3.184,0,1.205-.145,2.525-0.145,2.525h-4.04s0.091-1.838.091-3.146V25.265H173.329a5.85,5.85,0,0,0,6.185,5.95c4.417,0,5.325-3.161,5.325-3.161h4.236s-0.561,5.871-9.3,5.871c-7.427,0-10.632-3.722-10.632-9.634,0-7.461,4.766-9.935,10.484-9.935,7.644,0,9.83,5.145,9.891,8.582V7.131h4.134V17.516s1.752-3.1,7.392-3.1c6.023,0,9.589,4.336,9.589,9.727a12.151,12.151,0,0,1-.155,1.935c0.962-2.806,4.336-4.193,9.9-4.193H225.4v-0.9c0-2.537-2.193-3.857-5.022-3.857-4.352,0-4.577,2.8-4.577,2.8h-4.282c0-.767.551-5.57,9.154-5.57,2.94,0,6.156.63,7.786,3.109l-1.232-2.356h4.818l6.914,14.12,6.9-14.12h4.365ZM179.475,17.14c-3.006,0-6.053,1.941-6.053,5.344h11.812C185.234,19.279,182.9,17.14,179.475,17.14ZM200,17.261c-4.344,0-6.349,3.51-6.349,6.915,0,3.657,2.234,6.954,6.377,6.954,3.47,0,6.321-2.764,6.321-6.991C206.346,20.2,203.878,17.261,200,17.261Zm25.4,7.331c-6.5,0-10.926.02-10.926,3.311,0,1.81,1.313,3.368,4.379,3.368,5.6,0,6.546-3.906,6.546-5.476h0v-1.2ZM149.02,33.441a9.6,9.6,0,0,1-5.454,5.523,13.472,13.472,0,0,1-4.521.877c-1.988.089-2.622,0.111-7.682,0.111s-5.694-.022-7.682-0.111a13.522,13.522,0,0,1-4.522-.877,9.166,9.166,0,0,1-3.3-2.175,9.31,9.31,0,0,1-2.155-3.347,13.958,13.958,0,0,1-.867-4.579c-0.087-2.013-.109-2.655-0.109-7.779s0.022-5.766.117-7.787a13.971,13.971,0,0,1,.866-4.579,9.3,9.3,0,0,1,2.148-3.34,9.085,9.085,0,0,1,3.306-2.183,13.46,13.46,0,0,1,4.521-.877c1.988-.089,2.622-0.111,7.682-0.111s5.694,0.022,7.689.118a13.5,13.5,0,0,1,4.522.877,9.163,9.163,0,0,1,3.3,2.175,9.231,9.231,0,0,1,2.156,3.347A13.956,13.956,0,0,1,149.9,13.3c0.087,2.013.095,2.655,0.095,7.779s-0.022,5.766-.11,7.779A14,14,0,0,1,149.02,33.441Zm-2.476-19.967a10.531,10.531,0,0,0-.64-3.5A5.876,5.876,0,0,0,144.513,7.8a5.727,5.727,0,0,0-2.141-1.408,10.1,10.1,0,0,0-3.458-.649c-1.959-.089-2.549-0.111-7.529-0.111s-5.563.022-7.529,0.111a10.158,10.158,0,0,0-3.459.649,6.225,6.225,0,0,0-3.538,3.576,10.454,10.454,0,0,0-.641,3.5c-0.088,1.983-.109,2.588-0.109,7.623s0.021,5.633.109,7.624a10.5,10.5,0,0,0,.641,3.5,5.869,5.869,0,0,0,1.39,2.168A5.733,5.733,0,0,0,120.39,35.8a10.106,10.106,0,0,0,3.458.649c1.959,0.089,2.556.11,7.529,0.11s5.563-.022,7.529-0.11a10.159,10.159,0,0,0,3.459-.649,6.224,6.224,0,0,0,3.539-3.584,10.481,10.481,0,0,0,.64-3.5c0.088-1.991.11-2.58,0.11-7.617S146.632,15.464,146.544,13.473Zm-5.221-.207A2.264,2.264,0,1,1,143.559,11,2.25,2.25,0,0,1,141.323,13.267ZM131.37,30.778a9.7,9.7,0,1,1,9.575-9.7A9.638,9.638,0,0,1,131.37,30.778Zm0-15.985a6.29,6.29,0,1,0,6.211,6.289A6.252,6.252,0,0,0,131.37,14.793ZM86.979,34.653H80.387V24.163c0-2.5-.05-5.706-3.435-5.706-3.435,0-3.961,2.716-3.961,5.525v10.67h-6.6V13.1H72.73v2.938h0.093a6.924,6.924,0,0,1,6.25-3.479c6.684,0,7.914,4.461,7.914,10.251V34.652H86.979ZM58.948,10.167a3.894,3.894,0,1,1,3.826-3.912A3.884,3.884,0,0,1,58.948,10.167Zm-38.613.442v4.137h5.388l-0.738,6.006H20.336V35.86H14.4V20.749H9.552V14.744H14.4V10.013c0-5.141,3.008-7.938,7.4-7.938a38.824,38.824,0,0,1,4.436.238V7.684H23.185C20.8,7.684,20.336,8.872,20.335,10.608ZM-17.246,30.594a5.687,5.687,0,0,1-3.973,4.026c-3.527.941-17.635,0.941-17.635,0.941s-14.072,0-17.635-.978a5.687,5.687,0,0,1-3.973-4.027c-0.928-3.537-.928-10.987-0.928-10.987s0-7.412.928-10.986A5.8,5.8,0,0,1-56.49,4.52c3.527-.941,17.635-0.941,17.635-0.941s14.109,0,17.636.978a5.685,5.685,0,0,1,3.972,4.026c0.966,3.574.928,11.024,0.928,11.024S-16.318,27.02-17.246,30.594Zm-26.1-17.872v13.7l11.732-6.848Zm105.6,21.931H55.647V13.106h6.607V34.653Zm217.88-7.532-0.144-3.741a1.164,1.164,0,0,0-.163-0.666,1.047,1.047,0,0,0-.856-0.3c-0.964-.009-1.922.218-2.884,0.17a2.708,2.708,0,0,1-2.406-1.343,3.617,3.617,0,0,1-.162-1.8,106.081,106.081,0,0,1,1.85-12.819,1.9,1.9,0,0,1,.491-1.092,1.877,1.877,0,0,1,1.114-.331C293.8,3.878,310.433.209,327.305-.031a2.018,2.018,0,0,1,1.428.349,2.1,2.1,0,0,1,.322,1.908q-0.552,3.476-1.1,6.951a1.415,1.415,0,0,0-.01.59,1.437,1.437,0,0,0,1.54.7L336,10.414a1.234,1.234,0,0,1,1.14.406,1.256,1.256,0,0,1-.049,1.019q-2.144,6.232-4.286,12.465a3.173,3.173,0,0,1-.816,1.459,3.115,3.115,0,0,1-1.623.547c-16.108,2.034-32.172,4.492-48.264,6.653a1.812,1.812,0,0,1-1.207-.117,1.881,1.881,0,0,1-.6-1.6Zm6.476-4.4V11.664h4.333V9.806h-10.7v1.858h4.313V22.716h2.059Zm9.52-9.7a3.378,3.378,0,0,0-2.778,1.35V13.112h-1.9v9.6h2.04V17.591a2.5,2.5,0,0,1,.777-1.956,2.891,2.891,0,0,1,2.02-.7h0.622V13.112a3.167,3.167,0,0,0-.777-0.1h0Zm3.293,8.754a4.085,4.085,0,0,0,3,1.164,4.022,4.022,0,0,0,2.963-1.174,4.153,4.153,0,0,0,1.175-3.071V13.112h-2.04v5.731a2.171,2.171,0,0,1-.592,1.585,2.017,2.017,0,0,1-1.506.606,2.094,2.094,0,0,1-1.554-.606,2.149,2.149,0,0,1-.6-1.585V13.112h-2.021v5.575A4.141,4.141,0,0,0,299.423,21.768Zm10.471-.3a4.873,4.873,0,0,0,3.584,1.467,4.69,4.69,0,0,0,2.331-.587A4.543,4.543,0,0,0,317.5,20.7l-1.437-1.115a3.09,3.09,0,0,1-2.565,1.448,2.826,2.826,0,0,1-2.137-.9,3.313,3.313,0,0,1,0-4.441,2.829,2.829,0,0,1,2.137-.9,3.018,3.018,0,0,1,2.565,1.467l1.437-1.135a4.389,4.389,0,0,0-4.021-2.23,4.783,4.783,0,0,0-3.575,1.457,4.688,4.688,0,0,0-1.476,3.55A4.848,4.848,0,0,0,309.894,21.465Zm11.51,1.252V8.045h-2.04V22.716h2.04Zm6.314-9.6h-2.526l-3.73,4.205,4.138,5.4h2.448l-4.177-5.379ZM271.439,43.631a5.448,5.448,0,0,0,2.817.743,4.571,4.571,0,0,0,3.079-1.037,3.379,3.379,0,0,0,1.215-2.7,3.082,3.082,0,0,0-.729-2.093,6.913,6.913,0,0,0-2.341-1.585l-1.438-.665a1.667,1.667,0,0,0-.174-0.1c-0.428-.221-0.68-0.352-0.758-0.391a2.67,2.67,0,0,1-.408-0.3,1.057,1.057,0,0,1-.359-0.47,2.482,2.482,0,0,1-.088-0.577A1.361,1.361,0,0,1,272.8,33.3a2.26,2.26,0,0,1,1.4-.411,3.143,3.143,0,0,1,2.7,1.565l1.438-1.115a4.458,4.458,0,0,0-1.7-1.683,4.838,4.838,0,0,0-2.438-.626,4.32,4.32,0,0,0-2.875.978,3.144,3.144,0,0,0-1.166,2.523A2.97,2.97,0,0,0,270.9,36.6a6.782,6.782,0,0,0,2.244,1.516l1.418,0.665a6.263,6.263,0,0,1,1.477.89,1.367,1.367,0,0,1,.407,1.047,1.591,1.591,0,0,1-.612,1.31,2.487,2.487,0,0,1-1.6.489,4.026,4.026,0,0,1-3.361-2.054l-1.457,1.115A5.568,5.568,0,0,0,271.439,43.631Zm10.093-.724a4.873,4.873,0,0,0,3.584,1.467,4.691,4.691,0,0,0,2.331-.587,4.551,4.551,0,0,0,1.69-1.643L287.7,41.029a3.091,3.091,0,0,1-2.565,1.447,2.824,2.824,0,0,1-2.137-.9,3.31,3.31,0,0,1,0-4.441,2.826,2.826,0,0,1,2.137-.9A3.018,3.018,0,0,1,287.7,37.7l1.437-1.135a4.389,4.389,0,0,0-4.021-2.23,4.782,4.782,0,0,0-3.575,1.457,4.688,4.688,0,0,0-1.476,3.55A4.845,4.845,0,0,0,281.532,42.907Zm10.14-.01a4.724,4.724,0,0,0,3.565,1.477,4.791,4.791,0,0,0,3.594-1.467,5.006,5.006,0,0,0,0-7.1,5.112,5.112,0,0,0-7.159-.01A5.033,5.033,0,0,0,291.672,42.9Zm5.683-1.321a2.942,2.942,0,0,1-4.226.01,3.1,3.1,0,0,1-.845-2.22,3.148,3.148,0,0,1,.855-2.24,2.9,2.9,0,0,1,4.216,0,3.147,3.147,0,0,1,.854,2.24A3.086,3.086,0,0,1,297.355,41.577Zm5.973,1.634a4.087,4.087,0,0,0,3,1.164,4.022,4.022,0,0,0,2.963-1.174,4.152,4.152,0,0,0,1.175-3.071V34.554h-2.04v5.732a2.173,2.173,0,0,1-.592,1.584,2.017,2.017,0,0,1-1.506.607,2.092,2.092,0,0,1-1.554-.607,2.148,2.148,0,0,1-.6-1.584V34.554h-2.021v5.575A4.145,4.145,0,0,0,303.328,43.211Zm14.017-.694a2.2,2.2,0,0,1-1.428-.382,1.587,1.587,0,0,1-.456-1.282V36.335H318.3v-1.78h-2.836V32.031H313.4v2.523h-1.554v1.78H313.4v4.695a3.22,3.22,0,0,0,.923,2.5,3.71,3.71,0,0,0,2.593.841,8.373,8.373,0,0,0,1.691-.215V42.418q-0.933.1-1.263,0.1h0Zm8.373-2.563a17.751,17.751,0,0,0,2.02-2.5,4.315,4.315,0,0,0,.7-2.406,3.784,3.784,0,0,0-1.214-2.856,4.243,4.243,0,0,0-3.041-1.154,4.155,4.155,0,0,0-3.108,1.233,4.008,4.008,0,0,0-1.2,2.9,4.2,4.2,0,0,0,.136,1.115h2.079a7.161,7.161,0,0,1-.1-1,2.414,2.414,0,0,1,.6-1.682,2.206,2.206,0,0,1,3.128-.029A2.321,2.321,0,0,1,326.3,35.2a3.063,3.063,0,0,1-.467,1.584,12.131,12.131,0,0,1-1.573,1.956L319.7,43.689v0.47h9.19v-1.8h-5.421Zm12.627,0.176V36.158h-2.059v3.971h-3.827l3.633-8.881h-2.118l-4.1,10.094v0.567h6.411v2.25h2.059v-2.25h1.749v-1.78h-1.749Z"/>
</svg>
