<svg xmlns="http://www.w3.org/2000/svg" width="33" height="33" viewBox="0 0 33 33">
  <defs>
    <style>
      .cls-1 {
        fill: #f7f8fa;
        fill-rule: evenodd;
      }
    </style>
  </defs>
  <path class="cls-1" d="M1901.59,56.923s-0.01,0-.01,0v-0.01L1900,58.508a8.3,8.3,0,0,1-7.88,2.276,27.453,27.453,0,0,1-8.06-3.646,37.525,37.525,0,0,1-6.36-5.174,37.988,37.988,0,0,1-4.75-5.816,29.516,29.516,0,0,1-3.57-7.292,8.486,8.486,0,0,1,2.09-8.609l1.86-1.876a1.311,1.311,0,0,1,1.87,0s0,0,.01,0l5.86,5.922a1.352,1.352,0,0,1,.01,1.892c-0.01,0-.01,0-0.01,0l-3.44,3.478a2.841,2.841,0,0,0-.29,3.688,41.165,41.165,0,0,0,9.55,9.462,2.807,2.807,0,0,0,3.61-.316l3.33-3.414a1.311,1.311,0,0,1,1.87,0s0,0,.01,0l5.87,5.943A1.352,1.352,0,0,1,1901.59,56.923Z" transform="translate(-1868.97 -28)"/>
</svg>
