<svg xmlns="http://www.w3.org/2000/svg" width="411.75" height="87.125" viewBox="0 0 411.75 87.125">
  <defs>
    <style>
      .cls-1 {
        fill: red;
        stroke: #000;
        stroke-width: 1px;
        fill-rule: evenodd;
      }
    </style>
  </defs>
  <path id="Shape_339_1" data-name="Shape 339 1" class="cls-1" d="M411.738,87.571H0l0.5-2.178H0.464l1.3-6.672H2.019L6.453,59.257h399.91l3.695,19.463h0.248l1.064,6.672h-0.046ZM57.872,66.791a7.741,7.741,0,0,0-4.754,1.581,6.783,6.783,0,0,0-2.659,3.977,3.916,3.916,0,0,0,.766,3.763,5.146,5.146,0,0,0,3.987,1.427,11.944,11.944,0,0,0,3.29-.529L59.184,75.2a6.485,6.485,0,0,1-3.323.91,4.081,4.081,0,0,1-3.047-.971,2.787,2.787,0,0,1-.536-2.719,5.21,5.21,0,0,1,1.911-3.02,5.369,5.369,0,0,1,3.429-1.165A4.588,4.588,0,0,1,61.125,69.6l0.634-1.675A7.19,7.19,0,0,0,57.872,66.791ZM100.4,68.217a5.727,5.727,0,0,0-4.243-1.426,8.632,8.632,0,0,0-5.048,1.54,6.416,6.416,0,0,0-2.75,3.885,3.96,3.96,0,0,0,.859,3.844,5.494,5.494,0,0,0,4.174,1.48,8.963,8.963,0,0,0,3.3-.616,7.964,7.964,0,0,0,2.718-1.748,6.579,6.579,0,0,0,1.859-3.208A3.776,3.776,0,0,0,100.4,68.217ZM140.738,67l-2.8,7.433-5.628-8-4.125,10.9h1.827l2.757-7.3,5.625,8.01L142.557,67h-1.819Zm30.07,0-0.538,1.426h2.945l-3.37,8.913h1.828l3.369-8.913h2.817L178.4,67h-7.589Zm39.425-.736-9.376,11.076h1.986l2.063-2.431h4.78l0.331,2.431h1.908ZM243.915,67l-3.908,10.339h1.828L245.742,67h-1.827Zm40.076,0-2.8,7.433-5.628-8-4.125,10.9h1.827l2.757-7.3,5.625,8.01L285.81,67h-1.819Zm31.426,0L311.51,77.338h6.344l0.546-1.426h-4.525l1.316-3.482h4.525l0.5-1.326h-4.525l1.011-2.679h4.524L321.761,67h-6.344Zm40.635,0.8A2.1,2.1,0,0,0,355,67.18,7.2,7.2,0,0,0,353.164,67h-2.418l-3.907,10.339h1.827l1.606-4.252h0.662l1.938,4.252H354.8l-2.088-4.359q3.251-.636,3.807-3.04A2.224,2.224,0,0,0,356.052,67.8Zm-2.088,3.3a2.4,2.4,0,0,1-.93.5,5.181,5.181,0,0,1-1.415.147h-0.838l1.247-3.321h0.766a2.675,2.675,0,0,1,1.612.361,1.046,1.046,0,0,1,.274,1.145A2.192,2.192,0,0,1,353.964,71.1ZM209.007,69.905l0.475,3.677H206ZM97.4,74.921a5.988,5.988,0,0,1-3.634,1.185,3.822,3.822,0,0,1-2.954-1.1,2.916,2.916,0,0,1-.623-2.792,4.729,4.729,0,0,1,2.023-2.847,6.3,6.3,0,0,1,3.671-1.138,3.944,3.944,0,0,1,2.982,1.011,2.8,2.8,0,0,1,.57,2.712A4.973,4.973,0,0,1,97.4,74.921ZM379.724,19.428h-0.337c-2.74,7.006-7.762,18.114-13.893,30.978H342.083L367.366,2.331H398.12l7.669,48.075H383.113C381.409,37.493,380.152,26.214,379.724,19.428Zm-83.3-2.183c-5.96,0-9.549,3.039-9.549,7.335,0,4.567,3.492,6.109,13.931,8.918,15.835,4.291,23.173,9.734,26,16.908H283.37c-15.883-5.319-21.419-11.782-21.419-22.222,0-16.667,13.3-27.749,34.566-27.749,25.547,0,34.334,13.026,34.877,25.422H309.125C308.519,21.855,306.015,17.245,296.429,17.245Zm-67.4,33.161c1.171-8.5,3.612-21.414,5.794-32.627l3.045-15.449H259.2l-9.353,48.075H229.025ZM200.134,26.861H199.8c-0.726,6.524-2.166,14.63-3.864,23.545H174.621l9.353-48.075h27.647c8.974,25.641,12.7,38.23,15.214,48.075H206.588C203.713,40.529,201.151,31.425,200.134,26.861Zm-66.176-7.433h-0.337c-2.739,7.006-7.762,18.114-13.893,30.978H96.317L121.6,2.331h30.753l7.669,48.075H137.348C135.643,37.493,134.386,26.214,133.958,19.428ZM7.271,50.406L16.624,2.331H40.138l-5.889,30.4H60.923l5.889-30.4H90.4L81.043,50.406H7.271Z" transform="translate(0 -0.438)"/>
</svg>
