<svg xmlns="http://www.w3.org/2000/svg" width="37.82" height="35.97" viewBox="0 0 37.82 35.97">
  <defs>
    <style>
      .cls-1 {
        fill: #ffc80a;
        fill-rule: evenodd;
      }
    </style>
  </defs>
  <path class="cls-1" d="M1355.01,1538.94l-12.25-1.13-4.86-11.28a0.98,0.98,0,0,0-1.8,0l-4.86,11.28-12.25,1.13a0.985,0.985,0,0,0-.55,1.72l9.23,8.1-2.7,11.98a0.982,0.982,0,0,0,1.46,1.06l10.57-6.27,10.57,6.27a0.982,0.982,0,0,0,1.46-1.06l-2.7-11.98,9.23-8.1A0.985,0.985,0,0,0,1355.01,1538.94Z" transform="translate(-1318.09 -1525.97)"/>
</svg>
