<svg xmlns="http://www.w3.org/2000/svg" width="96" height="56" viewBox="0 0 96 56">
  <defs>
    <style>
      .cls-1 {
        fill: #357cb0;
        stroke: #000;
        stroke-width: 1px;
        fill-rule: evenodd;
      }
    </style>
  </defs>
  <path id="Shape_346_2" data-name="Shape 346 2" class="cls-1" d="M93.8,52.891v2.837H91.2V52.891h-8.08V52.175l5.166-12.729h2.669l-4.578,11.2H91.2V45.638h2.6v5.008H96v2.245H93.8Zm-6.983-22.2a4,4,0,0,1-1.028,1.839,3.918,3.918,0,0,1-2.045.69c-20.3,2.565-40.546,5.665-60.827,8.391a2.283,2.283,0,0,1-1.521-.147,2.372,2.372,0,0,1-.758-2.02q-0.1-2.6-.2-5.2-0.091-2.359-.182-4.719a1.466,1.466,0,0,0-.2-0.839,1.316,1.316,0,0,0-1.079-.383c-1.215-.012-2.422.275-3.635,0.214A3.413,3.413,0,0,1,12.3,26.821a4.561,4.561,0,0,1-.2-2.269A133.772,133.772,0,0,1,14.43,8.386a2.39,2.39,0,0,1,.618-1.377,2.365,2.365,0,0,1,1.4-.417C37.654,4.929,58.62.3,79.883,0a2.54,2.54,0,0,1,1.8.44,2.659,2.659,0,0,1,.405,2.406L80.7,11.613a1.793,1.793,0,0,0-.013.744c0.2,0.749,1.174.891,1.941,0.884l8.214-.069a1.556,1.556,0,0,1,1.438.512,1.587,1.587,0,0,1-.062,1.285ZM34.056,12.405H20.566v2.344H26V28.687h2.6V14.749h5.46V12.405Zm7.517,4.169a4,4,0,0,0-.979-0.123,4.256,4.256,0,0,0-3.5,1.7V16.575h-2.4V28.687h2.571V22.224a3.16,3.16,0,0,1,.979-2.467,3.642,3.642,0,0,1,2.546-.888h0.783V16.575Zm12.168,0H51.17V23.8a2.738,2.738,0,0,1-.747,2,2.54,2.54,0,0,1-1.9.765,2.64,2.64,0,0,1-1.959-.765,2.713,2.713,0,0,1-.759-2V16.575H43.262v7.031a5.223,5.223,0,0,0,1.481,3.885,5.147,5.147,0,0,0,3.783,1.468,5.064,5.064,0,0,0,3.734-1.48,5.236,5.236,0,0,0,1.481-3.873V16.575Zm6.047,3.256A3.56,3.56,0,0,1,62.481,18.7a3.8,3.8,0,0,1,3.232,1.85l1.812-1.431A5.532,5.532,0,0,0,62.457,16.3a6.025,6.025,0,0,0-4.5,1.838,5.914,5.914,0,0,0-1.861,4.477,6.314,6.314,0,0,0,6.366,6.34,5.911,5.911,0,0,0,2.938-.74,5.738,5.738,0,0,0,2.13-2.072L65.713,24.74a3.892,3.892,0,0,1-3.232,1.826,3.558,3.558,0,0,1-2.693-1.135A4.176,4.176,0,0,1,59.788,19.831Zm12.658-9.646H69.875v18.5h2.571v-18.5ZM75.555,21.9L80.4,16.575H77.22l-4.7,5.3,5.215,6.809h3.085ZM16.026,39.965a5.617,5.617,0,0,1,2.142,2.121l-1.812,1.406a3.962,3.962,0,0,0-3.4-1.974,2.842,2.842,0,0,0-1.763.518,1.719,1.719,0,0,0-.686,1.456,3.155,3.155,0,0,0,.11.728,1.333,1.333,0,0,0,.453.592,3.418,3.418,0,0,0,.514.383q0.147,0.074.955,0.493a2.236,2.236,0,0,1,.22.123l1.812,0.839a8.715,8.715,0,0,1,2.95,2,3.891,3.891,0,0,1,.918,2.639,4.266,4.266,0,0,1-1.53,3.4A5.764,5.764,0,0,1,13.027,56a6.858,6.858,0,0,1-3.55-.937,7.019,7.019,0,0,1-2.546-2.59l1.836-1.406A5.075,5.075,0,0,0,13,53.656a3.135,3.135,0,0,0,2.02-.617,2.007,2.007,0,0,0,.771-1.653,1.72,1.72,0,0,0-.514-1.32,7.853,7.853,0,0,0-1.861-1.122l-1.787-.839A8.539,8.539,0,0,1,8.8,46.193a3.747,3.747,0,0,1-.943-2.6A3.965,3.965,0,0,1,9.33,40.409a5.445,5.445,0,0,1,3.624-1.233A6.087,6.087,0,0,1,16.026,39.965Zm-54.9,10.829,4.57-8.837-9.722-18.616a10.226,10.226,0,0,1,.686,3.885V38.668c0,1.326.187,3.395,0.187,3.395h-4.8s-0.128-1.67-.128-3.364c0,0-2.433,4.261-9.989,4.261-5.547,0-9.649-2.724-9.649-7.73a8.212,8.212,0,0,1,.044-0.837c-1.431,5.153-5.748,8.5-11.582,8.5-6.841,0-9.356-4.015-9.356-4.015,0,1.521-.183,3.184-0.183,3.184h-5.092s0.115-2.318.115-3.968V31.9h-20.4c0,4.379,3.261,7.5,7.794,7.5,5.567,0,6.712-3.987,6.712-3.987h5.339s-0.707,7.4-11.724,7.4c-9.36,0-13.4-4.693-13.4-12.149,0-9.41,6.006-12.529,13.212-12.529,9.633,0,12.389,6.488,12.465,10.822V9.032h5.21v13.1s2.209-3.915,9.316-3.915c7.591,0,12.085,5.468,12.085,12.267a15.3,15.3,0,0,1-.2,2.44c1.213-3.539,5.465-5.287,12.476-5.287h6.328v-1.14c0-3.2-2.764-4.863-6.328-4.863-5.485,0-5.769,3.536-5.769,3.536h-5.4c0-.968.694-7.024,11.536-7.024,3.706,0,7.758.794,9.812,3.921l-1.552-2.971h6.072L-31.463,36.9l8.692-17.807h5.5l-15.836,31.7h-5.769Zm-67.547-29.14c-3.789,0-7.629,2.448-7.629,6.74h14.886C-99.166,24.351-102.108,21.654-106.423,21.654Zm25.862,0.153c-5.474,0-8,4.426-8,8.72,0,4.611,2.816,8.769,8.036,8.769,4.374,0,7.967-3.486,7.967-8.816C-72.558,25.511-75.669,21.807-80.561,21.807Zm32.007,9.245c-8.191,0-13.769.025-13.769,4.175,0,2.282,1.655,4.247,5.519,4.247,7.052,0,8.25-4.925,8.25-6.906h0V31.053ZM-144.8,42.211a12.1,12.1,0,0,1-6.874,6.964,16.975,16.975,0,0,1-5.7,1.106c-2.5.112-3.3,0.139-9.681,0.139s-7.176-.027-9.681-0.139a17.035,17.035,0,0,1-5.7-1.106,11.558,11.558,0,0,1-4.157-2.743,11.763,11.763,0,0,1-2.716-4.221,17.6,17.6,0,0,1-1.092-5.774c-0.11-2.539-.137-3.348-0.137-9.81s0.027-7.271.146-9.819a17.643,17.643,0,0,1,1.092-5.774,11.739,11.739,0,0,1,2.707-4.213,11.445,11.445,0,0,1,4.167-2.752,16.96,16.96,0,0,1,5.7-1.107c2.5-.111,3.3-0.139,9.681-0.139s7.176,0.028,9.69.149a17.008,17.008,0,0,1,5.7,1.107A11.544,11.544,0,0,1-147.5,6.82a11.626,11.626,0,0,1,2.716,4.222,17.592,17.592,0,0,1,1.092,5.774c0.11,2.539.119,3.348,0.119,9.81s-0.027,7.271-.137,9.81A17.649,17.649,0,0,1-144.8,42.211Zm-3.12-25.18a13.256,13.256,0,0,0-.808-4.417,7.409,7.409,0,0,0-1.753-2.734,7.216,7.216,0,0,0-2.7-1.776,12.736,12.736,0,0,0-4.359-.818c-2.469-.112-3.212-0.139-9.489-0.139s-7.01.028-9.488,0.139a12.788,12.788,0,0,0-4.359.818,7.288,7.288,0,0,0-2.7,1.776,7.245,7.245,0,0,0-1.763,2.734,13.205,13.205,0,0,0-.807,4.417c-0.11,2.5-.137,3.264-0.137,9.614s0.027,7.1.137,9.615a13.263,13.263,0,0,0,.807,4.417,7.422,7.422,0,0,0,1.753,2.734,7.234,7.234,0,0,0,2.7,1.776,12.724,12.724,0,0,0,4.359.818c2.468,0.112,3.221.139,9.488,0.139s7.011-.028,9.489-0.139a12.763,12.763,0,0,0,4.358-.818,7.843,7.843,0,0,0,4.46-4.519,13.2,13.2,0,0,0,.808-4.417c0.11-2.51.137-3.254,0.137-9.605S-147.815,19.541-147.925,17.03Zm-6.58-.26a2.836,2.836,0,0,1-2.817-2.855,2.836,2.836,0,0,1,2.817-2.854,2.836,2.836,0,0,1,2.817,2.855A2.836,2.836,0,0,1-154.5,16.77Zm-12.544,22.083a12.151,12.151,0,0,1-12.067-12.227A12.151,12.151,0,0,1-167.049,14.4a12.151,12.151,0,0,1,12.067,12.227A12.151,12.151,0,0,1-167.049,38.853Zm0-20.159a7.882,7.882,0,0,0-7.828,7.932,7.881,7.881,0,0,0,7.828,7.931,7.88,7.88,0,0,0,7.827-7.931A7.881,7.881,0,0,0-167.049,18.695ZM-222.994,43.74H-231.3V30.51c0-3.152-.064-7.2-4.329-7.2-4.329,0-4.991,3.425-4.991,6.968V43.738h-8.317V16.565h7.987v3.706h0.117a8.723,8.723,0,0,1,7.876-4.387c8.424,0,9.975,5.625,9.975,12.927V43.738h-0.01v0Zm-35.327-30.88a4.9,4.9,0,0,1-4.822-4.933,4.857,4.857,0,0,1,4.822-4.887A4.859,4.859,0,0,1-253.5,7.927,4.9,4.9,0,0,1-258.321,12.86Zm-48.663.557v5.217h6.79l-0.93,7.573h-5.858V45.261h-7.486V26.206h-6.106V18.633h6.106V12.667c0-6.483,3.79-10.011,9.323-10.011a48.905,48.905,0,0,1,5.591.3V9.73h-3.838C-306.4,9.73-306.982,11.228-306.984,13.417Zm-47.362,25.2a7.169,7.169,0,0,1-5.007,5.077c-4.445,1.186-22.225,1.186-22.225,1.186s-17.734,0-22.226-1.233a7.172,7.172,0,0,1-5.007-5.078c-1.169-4.46-1.169-13.855-1.169-13.855s0-9.347,1.169-13.855A7.316,7.316,0,0,1-403.8,5.74c4.445-1.186,22.225-1.186,22.225-1.186s17.781,0,22.226,1.233a7.166,7.166,0,0,1,5.006,5.078c1.217,4.507,1.17,13.9,1.17,13.9S-353.177,34.114-354.346,38.622ZM-387.24,16.083V33.355l14.785-8.636ZM-254.154,43.74h-8.327V16.567h8.327V43.74Zm280.867-.4a5.532,5.532,0,0,1,5.068,2.812l-1.812,1.431a3.8,3.8,0,0,0-3.232-1.85,3.56,3.56,0,0,0-2.693,1.135,4.177,4.177,0,0,0,0,5.6,3.56,3.56,0,0,0,2.693,1.135,3.893,3.893,0,0,0,3.232-1.825l1.812,1.406a5.734,5.734,0,0,1-2.13,2.072,5.911,5.911,0,0,1-2.938.74,6.314,6.314,0,0,1-6.366-6.34,5.913,5.913,0,0,1,1.861-4.477A6.023,6.023,0,0,1,26.713,43.344Zm12.756,0A6.033,6.033,0,0,1,44,45.194a6.317,6.317,0,0,1,0,8.955A6.032,6.032,0,0,1,39.468,56a6.334,6.334,0,0,1-6.341-6.34A6.293,6.293,0,0,1,39.468,43.344Zm-2.656,9.139a3.705,3.705,0,0,0,5.325-.012,3.9,3.9,0,0,0,1.077-2.788,3.971,3.971,0,0,0-1.077-2.824,3.649,3.649,0,0,0-5.313,0,3.969,3.969,0,0,0-1.077,2.824A3.908,3.908,0,0,0,36.812,52.484Zm13.919-1.64a2.711,2.711,0,0,0,.759,2,2.638,2.638,0,0,0,1.959.765,2.539,2.539,0,0,0,1.9-.765,2.737,2.737,0,0,0,.747-2V43.616h2.571v7.031a5.236,5.236,0,0,1-1.481,3.873A5.066,5.066,0,0,1,53.448,56a5.146,5.146,0,0,1-3.783-1.468,5.224,5.224,0,0,1-1.481-3.885V43.616h2.546v7.228Zm11.63-10.41h2.6v3.182H68.53V45.86H64.955v5.7a2,2,0,0,0,.575,1.616,2.777,2.777,0,0,0,1.8.481q0.416,0,1.591-.123v2.2a10.581,10.581,0,0,1-2.13.271,4.675,4.675,0,0,1-3.268-1.06,4.061,4.061,0,0,1-1.163-3.158V45.86H60.4V43.616H62.36V40.433Zm15.669,5.994a3.866,3.866,0,0,0,.588-2,2.932,2.932,0,0,0-.734-2.06,2.778,2.778,0,0,0-3.942.037,3.041,3.041,0,0,0-.759,2.121,9.046,9.046,0,0,0,.122,1.258h-2.62a5.255,5.255,0,0,1-.171-1.407,5.056,5.056,0,0,1,1.518-3.651,5.236,5.236,0,0,1,3.917-1.554,5.34,5.34,0,0,1,3.832,1.456,4.773,4.773,0,0,1,1.53,3.6,5.448,5.448,0,0,1-.881,3.034,22.484,22.484,0,0,1-2.546,3.158l-2.84,3.035h6.831v2.27H70.293V55.136l5.754-6.241A15.353,15.353,0,0,0,78.029,46.428Z"/>
</svg>
