<svg xmlns="http://www.w3.org/2000/svg" width="74.094" height="44.375" viewBox="0 0 74.094 44.375">
  <defs>
    <style>
      .cls-1 {
        fill: #f7f8fa;
        fill-rule: evenodd;
      }
    </style>
  </defs>
  <path id="Scout24" class="cls-1" d="M-28.349,40.247h-4.578l3.627-7.008-7.714-14.762a8.1,8.1,0,0,1,.545,3.081v9.073c0,1.051.148,2.692,0.148,2.692h-3.806s-0.1-1.325-.1-2.668c0,0-1.93,3.379-7.926,3.379-4.4,0-7.656-2.16-7.656-6.13a6.556,6.556,0,0,1,.035-0.664,9.078,9.078,0,0,1-9.19,6.741c-5.428,0-7.424-3.184-7.424-3.184,0,1.205-.145,2.525-0.145,2.525h-4.041s0.092-1.838.092-3.146V25.265H-92.671a5.85,5.85,0,0,0,6.185,5.95c4.417,0,5.325-3.161,5.325-3.161h4.236s-0.561,5.871-9.3,5.871c-7.427,0-10.632-3.722-10.632-9.634,0-7.461,4.766-9.935,10.484-9.935,7.643,0,9.83,5.145,9.89,8.582V7.131h4.134V17.516s1.753-3.1,7.392-3.1c6.023,0,9.589,4.336,9.589,9.727a12.128,12.128,0,0,1-.155,1.935c0.962-2.806,4.336-4.193,9.9-4.193H-40.6v-0.9c0-2.537-2.193-3.857-5.021-3.857-4.352,0-4.578,2.8-4.578,2.8h-4.281c0-.767.55-5.57,9.154-5.57,2.94,0,6.156.63,7.786,3.109l-1.232-2.356h4.818l6.914,14.12,6.9-14.12h4.365ZM-86.525,17.14c-3.006,0-6.053,1.941-6.053,5.344h11.812C-80.766,19.279-83.1,17.14-86.525,17.14ZM-66,17.261c-4.344,0-6.349,3.51-6.349,6.915,0,3.657,2.234,6.954,6.377,6.954,3.471,0,6.322-2.764,6.322-6.991C-59.653,20.2-62.122,17.261-66,17.261Zm25.4,7.331c-6.5,0-10.926.02-10.926,3.311,0,1.81,1.313,3.368,4.379,3.368,5.6,0,6.546-3.906,6.546-5.476h0v-1.2Zm-76.374,8.848a9.6,9.6,0,0,1-5.454,5.523,13.472,13.472,0,0,1-4.521.877c-1.988.089-2.622,0.111-7.682,0.111s-5.694-.022-7.682-0.111a13.522,13.522,0,0,1-4.522-.877,9.166,9.166,0,0,1-3.3-2.175,9.31,9.31,0,0,1-2.155-3.347,13.958,13.958,0,0,1-.867-4.579c-0.087-2.013-.109-2.655-0.109-7.779s0.022-5.766.117-7.787a13.971,13.971,0,0,1,.866-4.579,9.3,9.3,0,0,1,2.148-3.34,9.085,9.085,0,0,1,3.306-2.183,13.46,13.46,0,0,1,4.521-.877c1.988-.089,2.622-0.111,7.682-0.111s5.694,0.022,7.689.118a13.5,13.5,0,0,1,4.522.877,9.163,9.163,0,0,1,3.3,2.175,9.231,9.231,0,0,1,2.156,3.347A13.956,13.956,0,0,1-116.1,13.3c0.087,2.013.095,2.655,0.095,7.779s-0.022,5.766-.11,7.779A14,14,0,0,1-116.98,33.441Zm-2.476-19.967a10.531,10.531,0,0,0-.64-3.5A5.876,5.876,0,0,0-121.487,7.8a5.727,5.727,0,0,0-2.141-1.408,10.1,10.1,0,0,0-3.458-.649c-1.959-.089-2.549-0.111-7.529-0.111s-5.563.022-7.529,0.111a10.158,10.158,0,0,0-3.459.649,5.78,5.78,0,0,0-2.14,1.408,5.724,5.724,0,0,0-1.4,2.168,10.454,10.454,0,0,0-.641,3.5c-0.088,1.983-.109,2.588-0.109,7.623s0.021,5.633.109,7.624a10.5,10.5,0,0,0,.641,3.5,5.869,5.869,0,0,0,1.39,2.168A5.733,5.733,0,0,0-145.61,35.8a10.106,10.106,0,0,0,3.458.649c1.959,0.089,2.556.11,7.529,0.11s5.563-.022,7.529-0.11a10.159,10.159,0,0,0,3.459-.649,6.224,6.224,0,0,0,3.539-3.584,10.481,10.481,0,0,0,.64-3.5c0.088-1.991.11-2.58,0.11-7.617S-119.368,15.464-119.456,13.473Zm-5.221-.207A2.25,2.25,0,0,1-126.912,11a2.25,2.25,0,0,1,2.235-2.264A2.25,2.25,0,0,1-122.441,11,2.25,2.25,0,0,1-124.677,13.267Zm-9.953,17.511a9.638,9.638,0,0,1-9.575-9.7,9.638,9.638,0,0,1,9.575-9.7,9.638,9.638,0,0,1,9.575,9.7A9.638,9.638,0,0,1-134.63,30.778Zm0-15.985a6.252,6.252,0,0,0-6.211,6.289,6.252,6.252,0,0,0,6.211,6.29,6.251,6.251,0,0,0,6.211-6.29A6.251,6.251,0,0,0-134.63,14.793Zm-44.391,19.86h-6.592V24.163c0-2.5-.051-5.706-3.435-5.706-3.435,0-3.961,2.716-3.961,5.525v10.67h-6.6V13.1h6.338v2.938h0.093a6.922,6.922,0,0,1,6.249-3.479c6.684,0,7.915,4.461,7.915,10.251V34.652h-0.008Zm-28.031-24.486a3.884,3.884,0,0,1-3.826-3.912,3.852,3.852,0,0,1,3.826-3.875,3.853,3.853,0,0,1,3.826,3.875A3.884,3.884,0,0,1-207.052,10.167Zm-38.613.442v4.137h5.388l-0.738,6.006h-4.649V35.86h-5.94V20.749h-4.844V14.744h4.844V10.013c0-5.141,3.008-7.938,7.4-7.938a38.818,38.818,0,0,1,4.436.238V7.684h-3.045C-245.2,7.684-245.664,8.872-245.665,10.608Zm-37.581,19.986a5.687,5.687,0,0,1-3.973,4.026c-3.527.941-17.635,0.941-17.635,0.941s-14.072,0-17.636-.978a5.685,5.685,0,0,1-3.972-4.027c-0.929-3.537-.929-10.987-0.929-10.987s0-7.412.929-10.986A5.8,5.8,0,0,1-322.49,4.52c3.527-.941,17.635-0.941,17.635-0.941s14.109,0,17.636.978a5.683,5.683,0,0,1,3.972,4.026c0.966,3.574.929,11.024,0.929,11.024S-282.318,27.02-283.246,30.594Zm-26.1-17.872v13.7l11.732-6.848Zm105.6,21.931h-6.607V13.106h6.607V34.653Zm217.88-7.532q-0.072-1.87-.145-3.741a1.162,1.162,0,0,0-.162-0.666,1.046,1.046,0,0,0-.856-0.3c-0.964-.009-1.922.218-2.884,0.17a2.708,2.708,0,0,1-2.406-1.343,3.615,3.615,0,0,1-.162-1.8A106.008,106.008,0,0,1,9.369,6.618,1.9,1.9,0,0,1,9.86,5.526,1.878,1.878,0,0,1,10.974,5.2C27.8,3.878,44.433.209,61.305-.031a2.018,2.018,0,0,1,1.428.349,2.107,2.107,0,0,1,.322,1.908l-1.1,6.951a1.425,1.425,0,0,0-.011.59,1.438,1.438,0,0,0,1.541.7L70,10.414a1.235,1.235,0,0,1,1.141.406,1.258,1.258,0,0,1-.049,1.019L66.8,24.3a3.172,3.172,0,0,1-.816,1.459,3.114,3.114,0,0,1-1.623.547C48.258,28.344,32.194,30.8,16.1,32.963a1.812,1.812,0,0,1-1.207-.117,1.88,1.88,0,0,1-.6-1.6Zm6.476-4.4V11.664h4.332V9.806h-10.7v1.858h4.313V22.716H20.61Zm9.519-9.7a3.379,3.379,0,0,0-2.778,1.35V13.112h-1.9v9.6h2.04V17.591a2.5,2.5,0,0,1,.777-1.956,2.892,2.892,0,0,1,2.02-.7h0.622V13.112a3.169,3.169,0,0,0-.777-0.1h0Zm3.293,8.754a4.086,4.086,0,0,0,3,1.164,4.02,4.02,0,0,0,2.963-1.174,4.151,4.151,0,0,0,1.175-3.071V13.112h-2.04v5.731a2.172,2.172,0,0,1-.592,1.585,2.016,2.016,0,0,1-1.506.606,2.1,2.1,0,0,1-1.554-.606,2.151,2.151,0,0,1-.6-1.585V13.112h-2.02v5.575A4.142,4.142,0,0,0,33.423,21.768Zm10.471-.3a4.876,4.876,0,0,0,3.584,1.467,4.693,4.693,0,0,0,2.331-.587A4.551,4.551,0,0,0,51.5,20.7l-1.438-1.115A3.089,3.089,0,0,1,47.5,21.034a2.824,2.824,0,0,1-2.137-.9,3.311,3.311,0,0,1,0-4.441,2.827,2.827,0,0,1,2.137-.9,3.016,3.016,0,0,1,2.564,1.467L51.5,15.127a4.39,4.39,0,0,0-4.022-2.23A4.781,4.781,0,0,0,43.9,14.354a4.688,4.688,0,0,0-1.476,3.55A4.848,4.848,0,0,0,43.894,21.465ZM55.4,22.716V8.045h-2.04V22.716H55.4Zm6.314-9.6H59.192l-3.73,4.205,4.138,5.4h2.448l-4.177-5.379ZM5.439,43.631a5.446,5.446,0,0,0,2.817.743,4.574,4.574,0,0,0,3.079-1.037,3.381,3.381,0,0,0,1.214-2.7,3.084,3.084,0,0,0-.729-2.093A6.911,6.911,0,0,0,9.48,36.961L8.043,36.3a1.717,1.717,0,0,0-.175-0.1L7.11,35.806A2.7,2.7,0,0,1,6.7,35.5a1.058,1.058,0,0,1-.359-0.47,2.5,2.5,0,0,1-.088-0.577A1.362,1.362,0,0,1,6.8,33.3a2.258,2.258,0,0,1,1.4-.411,3.144,3.144,0,0,1,2.7,1.565l1.438-1.115a4.458,4.458,0,0,0-1.7-1.683A4.839,4.839,0,0,0,8.2,31.033a4.322,4.322,0,0,0-2.875.978,3.144,3.144,0,0,0-1.166,2.523A2.971,2.971,0,0,0,4.905,36.6a6.783,6.783,0,0,0,2.244,1.516L8.567,38.78a6.237,6.237,0,0,1,1.477.89,1.364,1.364,0,0,1,.408,1.047,1.591,1.591,0,0,1-.612,1.31,2.49,2.49,0,0,1-1.6.489,4.027,4.027,0,0,1-3.361-2.054L3.419,41.577A5.571,5.571,0,0,0,5.439,43.631Zm10.092-.724a4.875,4.875,0,0,0,3.584,1.467,4.693,4.693,0,0,0,2.331-.587,4.551,4.551,0,0,0,1.69-1.643L21.7,41.029a3.089,3.089,0,0,1-2.564,1.447,2.824,2.824,0,0,1-2.137-.9,3.311,3.311,0,0,1,0-4.441,2.826,2.826,0,0,1,2.137-.9A3.016,3.016,0,0,1,21.7,37.7l1.438-1.135a4.391,4.391,0,0,0-4.021-2.23A4.782,4.782,0,0,0,15.541,35.8a4.688,4.688,0,0,0-1.476,3.55A4.848,4.848,0,0,0,15.532,42.907Zm10.141-.01a4.723,4.723,0,0,0,3.565,1.477,4.792,4.792,0,0,0,3.594-1.467,5.007,5.007,0,0,0,0-7.1,5.112,5.112,0,0,0-7.159-.01A5.031,5.031,0,0,0,25.672,42.9Zm5.683-1.321a2.941,2.941,0,0,1-4.225.01,3.1,3.1,0,0,1-.845-2.22,3.147,3.147,0,0,1,.855-2.24,2.9,2.9,0,0,1,4.216,0,3.149,3.149,0,0,1,.855,2.24A3.088,3.088,0,0,1,31.355,41.577Zm5.974,1.634a4.086,4.086,0,0,0,3,1.164A4.02,4.02,0,0,0,43.293,43.2a4.151,4.151,0,0,0,1.175-3.071V34.554h-2.04v5.732a2.17,2.17,0,0,1-.593,1.584,2.014,2.014,0,0,1-1.506.607,2.094,2.094,0,0,1-1.554-.607,2.15,2.15,0,0,1-.6-1.584V34.554h-2.02v5.575A4.142,4.142,0,0,0,37.328,43.211Zm14.017-.694a2.2,2.2,0,0,1-1.428-.382,1.586,1.586,0,0,1-.456-1.282V36.335H52.3v-1.78H49.461V32.031H47.4v2.523H45.847v1.78H47.4v4.695a3.219,3.219,0,0,0,.923,2.5,3.71,3.71,0,0,0,2.593.841,8.368,8.368,0,0,0,1.69-.215V42.418q-0.932.1-1.263,0.1h0Zm8.373-2.563a17.825,17.825,0,0,0,2.02-2.5,4.32,4.32,0,0,0,.7-2.406,3.783,3.783,0,0,0-1.214-2.856,4.24,4.24,0,0,0-3.04-1.154,4.155,4.155,0,0,0-3.108,1.233,4.007,4.007,0,0,0-1.2,2.9,4.163,4.163,0,0,0,.136,1.115h2.079a7.177,7.177,0,0,1-.1-1,2.411,2.411,0,0,1,.6-1.682,2.206,2.206,0,0,1,3.128-.029A2.323,2.323,0,0,1,60.3,35.2a3.063,3.063,0,0,1-.466,1.584,12.171,12.171,0,0,1-1.573,1.956L53.7,43.689v0.47h9.189v-1.8h-5.42Zm12.628,0.176V36.158H70.286v3.971H66.459l3.633-8.881H67.974l-4.1,10.094v0.567h6.411v2.25h2.059v-2.25h1.748v-1.78H72.346Z"/>
</svg>
